HIERARCHY
ROOT Pelvis
{
	OFFSET 0.000000 0.000000 0.000000
	CHANNELS 6 Xposition Yposition Zposition Xrotation Yrotation Zrotation
	JOINT LeftUpLeg_virtual
	{
		OFFSET 0.000000 0.000000 0.000000
		CHANNELS 3 Xrotation Yrotation Zrotation
		JOINT LeftUpLeg
		{
			OFFSET 18.735201 -5.666702 -4.541200
			CHANNELS 3 Xrotation Yrotation Zrotation
			JOINT LeftLeg
			{
				OFFSET -0.021200 -31.938179 0.493100
				CHANNELS 3 Xrotation Yrotation Zrotation
				JOINT LeftFoot
				{
					OFFSET 0.021200 -31.938179 -4.336299
					CHANNELS 3 Xrotation Yrotation Zrotation
					JOINT LeftToeBase
					{
						OFFSET 0.943001 -26.722000 15.023500
						CHANNELS 3 Xrotation Yrotation Zrotation
						End Site
						{
							OFFSET 0 0 0
						}
					}
				}
			}
		}
	}
	JOINT RightUpLeg_virtual
	{
		OFFSET 0.000000 0.000000 0.000000
		CHANNELS 3 Xrotation Yrotation Zrotation
		JOINT RightUpLeg
		{
			OFFSET -18.735201 -5.666702 -4.541200
			CHANNELS 3 Xrotation Yrotation Zrotation
			JOINT RightLeg
			{
				OFFSET 0.018946 -31.938133 0.493100
				CHANNELS 3 Xrotation Yrotation Zrotation
				JOINT RightFoot
				{
					OFFSET -0.018946 -31.938126 -4.336299
					CHANNELS 3 Xrotation Yrotation Zrotation
					JOINT RightToeBase
					{
						OFFSET -0.943001 -26.722004 15.023500
						CHANNELS 3 Xrotation Yrotation Zrotation
						End Site
						{
							OFFSET 0 0 0
						}
					}
				}
			}
		}
	}
	JOINT Hips_virtual
	{
		OFFSET 0.000000 0.000000 0.000000
		CHANNELS 3 Xrotation Yrotation Zrotation
		JOINT Hips
		{
			OFFSET -0.000000 -0.000000 -0.000000
			CHANNELS 3 Xrotation Yrotation Zrotation
			JOINT Spine
			{
				OFFSET 0.000000 10.199997 -0.299500
				CHANNELS 3 Xrotation Yrotation Zrotation
				JOINT Spine1
				{
					OFFSET 0.000000 11.900002 -1.516600
					CHANNELS 3 Xrotation Yrotation Zrotation
					JOINT Spine2
					{
						OFFSET 0.000000 13.600006 -2.842500
						CHANNELS 3 Xrotation Yrotation Zrotation
						JOINT Neck_virtual
						{
							OFFSET 0.000000 0.000000 0.000000
							CHANNELS 3 Xrotation Yrotation Zrotation
							JOINT Neck
							{
								OFFSET 0.000000 9.624100 -2.890100
								CHANNELS 3 Xrotation Yrotation Zrotation
								JOINT Head
								{
									OFFSET 0.000000 14.068802 -1.351900
									CHANNELS 3 Xrotation Yrotation Zrotation
									End Site
									{
										OFFSET 0 0 0
									}
								}
							}
						}
						JOINT LeftShoulder_virtual
						{
							OFFSET 0.000000 0.000000 0.000000
							CHANNELS 3 Xrotation Yrotation Zrotation
							JOINT LeftShoulder
							{
								OFFSET 15.263000 10.923401 -0.547700
								CHANNELS 3 Xrotation Yrotation Zrotation
								JOINT LeftArm
								{
									OFFSET 25.438599 -2.830597 -13.032500
									CHANNELS 3 Xrotation Yrotation Zrotation
									JOINT LeftForeArm
									{
										OFFSET 29.960503 0.000000 0.000000
										CHANNELS 3 Xrotation Yrotation Zrotation
										JOINT LeftHand
										{
											OFFSET 27.849251 0.000000 0.000000
											CHANNELS 3 Xrotation Yrotation Zrotation
											End Site
											{
												OFFSET 0 0 0
											}
										}
									}
								}
							}
						}
						JOINT RightShoulder_virtual
						{
							OFFSET 0.000000 0.000000 0.000000
							CHANNELS 3 Xrotation Yrotation Zrotation
							JOINT RightShoulder
							{
								OFFSET -15.263000 10.923401 -0.547700
								CHANNELS 3 Xrotation Yrotation Zrotation
								JOINT RightArm
								{
									OFFSET -25.438599 -2.830597 -13.032500
									CHANNELS 3 Xrotation Yrotation Zrotation
									JOINT RightForeArm
									{
										OFFSET -29.960503 0.000000 0.000000
										CHANNELS 3 Xrotation Yrotation Zrotation
										JOINT RightHand
										{
											OFFSET -27.849251 0.000000 0.000000
											CHANNELS 3 Xrotation Yrotation Zrotation
											End Site
											{
												OFFSET 0 0 0
											}
										}
									}
								}
							}
						}
					}
				}
			}
		}
	}
}
MOTION
Frames: 11
Frame Time: 0.03333333
-12.681976 90.944206 0.837420 0.000000 0.000000 0.000000 -4.801000 -1.867502 5.632179 -19.505332 0.425957 -4.388739 32.378239 1.453464 -4.284026 -4.807998 4.458721 -0.932557 0.000000 0.000000 0.000000 -4.945067 -0.781202 5.746246 -26.241950 -6.922197 -24.340185 46.739982 -1.150430 2.834938 -12.055978 -7.593723 -1.069825 0.000000 0.000000 0.000000 -5.175917 -1.879876 5.960087 -0.772829 -0.189195 -0.019144 8.368544 1.300573 2.465763 17.241641 0.282469 -1.193337 0.000000 0.000000 0.000000 11.399782 2.543210 -1.909751 8.885496 3.084357 -0.109785 0.000000 0.000000 0.000000 15.087085 2.263806 -1.440715 -14.965911 -11.271466 -26.835439 0.771234 -38.630829 -33.377362 -4.488046 -35.297075 -14.175944 0.000000 0.000000 0.000000 11.436304 3.148231 -2.397934 -5.661529 19.108322 16.104179 -0.399873 34.213340 43.808908 27.802387 48.885170 -16.759968 0.000000 0.000000 0.000000 
-12.123867 91.171944 0.944010 0.000000 0.000000 0.000000 -6.172722 -2.548941 5.783020 -15.983232 -0.189368 -5.242008 29.526751 1.450294 -4.129196 -3.786399 4.444712 -0.443854 0.000000 0.000000 0.000000 -6.370216 -1.257219 5.854433 -24.163625 -7.926540 -25.443419 45.478712 -0.645417 2.756104 -11.757417 -7.077277 -0.369092 0.000000 0.000000 0.000000 -6.858584 -2.011056 5.856549 -0.786676 -0.202738 -0.020766 7.619288 1.211666 1.973981 16.295756 0.416199 -1.767181 0.000000 0.000000 0.000000 10.063446 2.664457 -2.357075 8.195424 2.709078 -0.000765 0.000000 0.000000 0.000000 14.302577 2.308949 -1.787710 -13.926832 -11.586227 -24.333602 1.692048 -35.783641 -34.300114 -3.644678 -34.568796 -14.155880 0.000000 0.000000 0.000000 10.464894 3.249255 -2.856787 -3.957601 16.546589 15.652770 1.922819 36.385128 43.325454 31.060104 48.269900 -19.877012 0.000000 0.000000 0.000000 
-11.773289 91.277077 1.112566 0.000000 0.000000 0.000000 -6.935479 -2.872029 5.601305 -13.975358 -0.084636 -5.469770 28.057898 1.463770 -4.320927 -3.323865 4.796007 0.282312 0.000000 0.000000 0.000000 -7.142757 -1.613483 5.568473 -23.010655 -9.109461 -25.880919 45.099244 -0.454743 3.108292 -12.500416 -7.080456 -0.561570 0.000000 0.000000 0.000000 -7.704662 -1.922186 5.434737 -0.782015 -0.183127 -0.077345 6.985436 0.959395 1.771566 15.154139 0.500718 -2.183266 0.000000 0.000000 0.000000 8.577497 2.691618 -2.629950 7.418733 2.371322 0.201594 0.000000 0.000000 0.000000 13.379063 2.262160 -1.999616 -12.774742 -11.736164 -21.519870 3.993673 -30.691127 -34.629715 -3.146933 -36.291302 -14.989047 0.000000 0.000000 0.000000 9.343207 3.237713 -3.164860 -2.311028 14.207965 14.785637 4.481700 36.946184 42.442567 34.535612 49.260697 -23.109254 0.000000 0.000000 0.000000 
-11.545910 91.285484 1.277332 0.000000 0.000000 0.000000 -7.236794 -2.977009 5.281634 -13.133448 0.755961 -5.234801 27.824198 1.475405 -4.780732 -3.853483 5.375226 1.277132 0.000000 0.000000 0.000000 -7.427727 -1.911875 5.148234 -22.677019 -10.305015 -25.995314 45.350366 -0.629817 3.608605 -13.674397 -7.519220 -1.434347 0.000000 0.000000 0.000000 -7.850846 -1.847398 5.047626 -0.767201 -0.175967 -0.156379 6.303530 0.583641 1.662227 13.901395 0.602545 -2.478780 0.000000 0.000000 0.000000 7.210401 2.669583 -2.778186 6.580679 2.102513 0.477652 0.000000 0.000000 0.000000 12.383038 2.193104 -2.114849 -11.643966 -11.586758 -18.667488 6.430065 -24.449483 -35.432788 -2.752003 -38.750764 -16.374861 0.000000 0.000000 0.000000 8.286806 3.212583 -3.359220 -1.040780 12.205680 13.781181 6.172284 35.853053 42.163639 37.925599 50.953983 -26.179002 0.000000 0.000000 0.000000 
-11.401991 91.271713 1.402922 0.000000 0.000000 0.000000 -7.192438 -3.158535 5.004065 -12.607875 1.959009 -4.857311 27.730232 1.338231 -5.300225 -5.511921 5.830617 2.267563 0.000000 0.000000 0.000000 -7.416698 -2.331761 4.848235 -22.564843 -11.073329 -25.810588 45.496768 -0.954804 3.898017 -14.520788 -8.105265 -2.500364 0.000000 0.000000 0.000000 -7.559608 -2.041355 4.939022 -0.750445 -0.167415 -0.201672 5.474174 0.195411 1.351000 12.771383 0.753239 -2.673076 0.000000 0.000000 0.000000 6.162543 2.658294 -2.826122 5.712265 1.935666 0.782918 0.000000 0.000000 0.000000 11.367519 2.174085 -2.200183 -10.678169 -11.248091 -16.061357 7.508264 -17.848206 -37.389589 -2.031128 -40.372770 -17.726733 0.000000 0.000000 0.000000 7.435109 3.222109 -3.457185 -0.260572 10.578316 13.062257 6.415913 33.359320 42.925195 40.570579 52.477682 -28.418889 0.000000 0.000000 0.000000 
-11.247885 91.312241 1.500372 0.000000 0.000000 0.000000 -6.938562 -3.553603 4.873301 -11.728601 3.169084 -4.607486 26.926303 1.087922 -5.726713 -7.374745 6.104017 3.138039 0.000000 0.000000 0.000000 -7.236474 -2.872142 4.766519 -22.116002 -11.205977 -25.422671 44.968227 -1.282966 3.901386 -15.263646 -8.621330 -3.439504 0.000000 0.000000 0.000000 -7.156456 -2.553068 5.107039 -0.747059 -0.166736 -0.207176 4.615622 -0.095241 0.745000 11.775337 0.978447 -2.787583 0.000000 0.000000 0.000000 5.516904 2.718368 -2.823079 4.841219 1.878197 1.062854 0.000000 0.000000 0.000000 10.398253 2.261492 -2.300475 -9.945684 -10.769276 -13.853593 6.664830 -11.271345 -40.411589 -0.872745 -40.556249 -18.635404 0.000000 0.000000 0.000000 6.729583 3.324852 -3.422215 0.005540 9.413162 12.858822 5.460135 29.586549 44.743210 41.993017 53.362164 -29.316586 0.000000 0.000000 0.000000 
-11.122223 91.403717 1.622852 0.000000 0.000000 0.000000 -6.657204 -4.144708 4.883944 -10.416517 4.327007 -4.563214 25.453190 0.960729 -6.046677 -8.737531 6.328192 4.009808 0.000000 0.000000 0.000000 -7.055126 -3.498890 4.860821 -21.351772 -11.070599 -25.078395 43.935205 -1.572211 3.816156 -16.123222 -8.922265 -3.993001 0.000000 0.000000 0.000000 -6.858466 -3.187049 5.387374 -0.757454 -0.180390 -0.163174 3.743418 -0.247518 -0.023035 10.942187 1.256319 -2.798203 0.000000 0.000000 0.000000 5.291033 2.870271 -2.818259 3.990594 1.920596 1.272230 0.000000 0.000000 0.000000 9.532561 2.451813 -2.473123 -9.420061 -10.286990 -12.040840 4.241461 -4.941670 -43.855572 0.694081 -39.394622 -18.888941 0.000000 0.000000 0.000000 6.183027 3.530149 -3.277161 -0.103365 8.580406 13.130996 4.234617 24.915039 47.335127 42.219838 53.534449 -28.924557 0.000000 0.000000 0.000000 
-11.061325 91.553017 1.818665 0.000000 0.000000 0.000000 -6.472918 -4.792797 4.899633 -9.015316 5.368454 -4.546515 23.697656 1.011923 -6.286805 -9.032284 6.558994 4.812255 0.000000 0.000000 0.000000 -6.926580 -4.076363 4.978636 -20.422358 -10.977171 -24.773105 42.735438 -1.746618 3.797141 -16.588310 -8.953323 -3.958427 0.000000 0.000000 0.000000 -6.718466 -3.830969 5.552289 -0.771132 -0.190180 -0.109748 3.058011 -0.235888 -0.757840 10.244982 1.558130 -2.721213 0.000000 0.000000 0.000000 5.299409 3.090767 -2.830005 3.170381 2.051279 1.387955 0.000000 0.000000 0.000000 8.741973 2.706907 -2.707957 -9.045436 -9.989626 -10.578453 1.256613 1.124351 -47.083093 2.486800 -37.763597 -18.620788 0.000000 0.000000 0.000000 5.668743 3.785165 -3.048721 -0.415107 8.129204 13.656637 3.865731 19.591003 50.068910 42.017825 53.537598 -27.965996 0.000000 0.000000 0.000000 
-11.066143 91.744797 2.174879 0.000000 0.000000 0.000000 -6.439650 -5.327124 4.827171 -7.993942 6.255080 -4.384341 22.511204 1.168259 -6.446057 -8.218340 6.901474 5.626499 0.000000 0.000000 0.000000 -6.865011 -4.498087 4.949315 -19.572592 -11.144967 -24.589941 41.740201 -1.828185 3.890085 -16.533883 -8.707534 -3.520562 0.000000 0.000000 0.000000 -6.727303 -4.324070 5.462234 -0.779026 -0.197392 -0.091990 2.642397 -0.090467 -1.279439 9.614957 1.882744 -2.603692 0.000000 0.000000 0.000000 5.397657 3.344629 -2.856465 2.404161 2.246620 1.400413 0.000000 0.000000 0.000000 8.070873 2.966178 -2.982155 -8.696269 -9.963187 -9.436312 -1.031892 6.435630 -49.618053 4.241074 -36.290953 -18.039243 0.000000 0.000000 0.000000 5.131172 4.077161 -2.771735 -0.816903 8.022466 13.839665 4.795655 14.251323 52.821323 41.939445 53.657276 -27.087849 0.000000 0.000000 0.000000 
-11.145866 91.922989 2.734962 0.000000 0.000000 0.000000 -6.569869 -5.703841 4.659758 -7.393349 6.953073 -3.961617 22.203313 1.312835 -6.513671 -7.140796 7.177754 6.273681 0.000000 0.000000 0.000000 -6.897401 -4.845841 4.766971 -18.904104 -11.408014 -24.397724 41.310087 -1.808111 3.887518 -15.877246 -8.209853 -2.855354 0.000000 0.000000 0.000000 -6.824151 -4.717406 5.172976 -0.772247 -0.199281 -0.111156 2.490850 0.124783 -1.469364 9.014522 2.168975 -2.434233 0.000000 0.000000 0.000000 5.443338 3.587300 -2.863666 1.702063 2.478687 1.359594 0.000000 0.000000 0.000000 7.489837 3.190498 -3.260455 -8.314043 -10.196879 -8.668034 -1.453367 10.375863 -51.498650 5.921912 -35.548235 -17.319746 0.000000 0.000000 0.000000 4.611795 4.342130 -2.513956 -1.191820 8.144322 13.289304 6.951560 9.564754 55.524629 42.328284 54.118287 -26.781368 0.000000 0.000000 0.000000 
-11.241167 92.108566 3.464376 0.000000 0.000000 0.000000 -6.753381 -6.042318 4.456775 -6.818562 7.289917 -3.370532 22.234182 1.251313 -6.500545 -6.524177 7.014885 6.331092 0.000000 0.000000 0.000000 -6.981512 -5.138438 4.545082 -18.176802 -11.409228 -24.019825 41.113033 -1.685717 3.513637 -14.955580 -7.516969 -2.185935 0.000000 0.000000 0.000000 -6.974281 -5.163994 4.845394 -0.756613 -0.200196 -0.156853 2.536466 0.364383 -1.399017 8.416272 2.398975 -2.226887 0.000000 0.000000 0.000000 5.282234 3.790801 -2.807162 1.062580 2.711931 1.307664 0.000000 0.000000 0.000000 6.993213 3.370634 -3.451585 -7.837253 -10.584225 -8.323869 0.515873 12.425300 -52.981938 7.469801 -35.711064 -16.576951 0.000000 0.000000 0.000000 4.133535 4.544363 -2.305246 -1.444613 8.429142 11.807871 9.974459 6.110691 58.136692 43.403298 54.928105 -27.380763 0.000000 0.000000 0.000000 
